<svg width="220" height="220" viewBox="0 0 220 220" fill="none" xmlns="http://www.w3.org/2000/svg">
    <g transform="translate(110, 110)">
        <g id="rotatingText">
            <path d="M101.578 6H105.125L109.875 17.5937H110.062L114.812 6H118.359V22H115.578V11.0078H115.43L111.008 21.9531H108.93L104.508 10.9844H104.359V22H101.578V6Z" fill="black"/>
            <path d="M120.658 6.2747L123.882 6.84312L126.507 14.4934L126.661 14.5205L131.745 8.22959L134.968 8.79802L127.495 17.6662L126.458 23.5443L123.611 23.0423L124.648 17.1642L120.658 6.2747Z" fill="black"/>
            <path d="M148.871 30.8289L156.871 16.9725L162.176 20.035C163.177 20.6131 163.918 21.2515 164.399 21.95C164.887 22.6467 165.139 23.3607 165.156 24.0921C165.177 24.826 164.99 25.5358 164.594 26.2214C164.268 26.7852 163.882 27.2054 163.433 27.4818C162.988 27.7537 162.511 27.9083 162.002 27.9454C161.493 27.9826 160.982 27.925 160.469 27.7729L160.391 27.9082C160.867 28.2191 161.251 28.6424 161.543 29.1779C161.842 29.7116 161.993 30.3098 161.995 30.9726C161.997 31.6355 161.795 32.3187 161.389 33.0224C160.975 33.7395 160.429 34.2843 159.751 34.6566C159.076 35.0244 158.293 35.1711 157.404 35.0967C156.515 35.0224 155.54 34.6792 154.48 34.0672L148.871 30.8289ZM152.592 30.1807L155.292 31.7393C156.203 32.2654 156.96 32.4706 157.562 32.3551C158.171 32.2376 158.634 31.9038 158.952 31.3535C159.189 30.943 159.301 30.5146 159.288 30.0681C159.278 29.6171 159.14 29.1889 158.875 28.7833C158.613 28.3732 158.222 28.0184 157.703 27.7189L154.936 26.1212L152.592 30.1807ZM155.979 24.3148L158.462 25.7484C158.895 25.9984 159.331 26.1447 159.769 26.1873C160.21 26.2255 160.615 26.1553 160.983 25.9767C161.357 25.7961 161.662 25.5029 161.896 25.097C162.206 24.5602 162.272 24.0088 162.094 23.4427C161.92 22.8793 161.463 22.384 160.723 21.9569L158.186 20.4921L155.979 24.3148Z" fill="black"/>
            <path d="M162.795 39.4243L173.079 27.1676L175.3 29.0306L166.577 39.4261L171.975 43.9557L170.413 45.817L162.795 39.4243Z" fill="black"/>
            <path d="M187.959 53.5589C186.639 54.667 185.3 55.3688 183.943 55.6642C182.594 55.9601 181.313 55.8925 180.102 55.4611C178.893 55.0338 177.839 54.2835 176.938 53.2102C176.037 52.1369 175.48 50.9661 175.266 49.6978C175.059 48.4302 175.216 47.1556 175.739 45.8741C176.269 44.5933 177.192 43.4005 178.509 42.2957C179.829 41.1875 181.164 40.4855 182.514 40.1895C183.87 39.8941 185.153 39.9601 186.361 40.3875C187.573 40.8188 188.629 41.5711 189.53 42.6444C190.43 43.7176 190.986 44.8864 191.197 46.1507C191.412 47.4191 191.254 48.6936 190.724 49.9745C190.202 51.256 189.28 52.4508 187.959 53.5589ZM186.086 51.3266C187.016 50.5466 187.678 49.7431 188.072 48.9162C188.473 48.0899 188.623 47.2841 188.522 46.4989C188.424 45.7104 188.096 44.9829 187.537 44.3166C186.978 43.6503 186.319 43.2008 185.559 42.9679C184.803 42.7318 183.982 42.7376 183.095 42.9853C182.216 43.2337 181.311 43.7479 180.382 44.528C179.452 45.308 178.787 46.1112 178.385 46.9374C177.991 47.7644 177.843 48.5721 177.94 49.3607C178.042 50.1459 178.372 50.8716 178.931 51.5379C179.49 52.2042 180.147 52.6555 180.903 52.8917C181.663 53.1245 182.482 53.1167 183.362 52.8683C184.249 52.6206 185.157 52.1067 186.086 51.3266Z" fill="black"/>
            <path d="M197.54 63.8428C197.841 63.5191 198.078 63.1746 198.252 62.8095C198.433 62.4463 198.548 62.0672 198.597 61.6723C198.648 61.2819 198.624 60.8808 198.524 60.4691C198.429 60.0547 198.262 59.6401 198.023 59.2251C197.593 58.4809 197.023 57.9259 196.313 57.5602C195.602 57.1945 194.788 57.0544 193.869 57.1399C192.957 57.2273 191.982 57.5704 190.945 58.1694C189.899 58.7736 189.107 59.4499 188.571 60.1984C188.035 60.947 187.747 61.7238 187.706 62.5289C187.671 63.3315 187.877 64.1206 188.325 64.8964C188.731 65.6001 189.218 66.1309 189.785 66.4888C190.355 66.8513 190.969 67.0291 191.627 67.0223C192.289 67.0129 192.956 66.8142 193.628 66.4262L193.868 67.0453L191.696 63.2835L193.659 62.1507L196.905 67.7731L195.24 68.734C194.054 69.4189 192.882 69.7588 191.724 69.7536C190.567 69.7484 189.498 69.4392 188.518 68.826C187.543 68.2101 186.725 67.3294 186.064 66.1837C185.327 64.9072 184.966 63.621 184.982 62.325C185.004 61.0309 185.389 59.8072 186.137 58.654C186.891 57.5027 187.999 56.5051 189.461 55.6614C190.579 55.0155 191.67 54.5966 192.732 54.4045C193.796 54.2169 194.8 54.2325 195.744 54.4512C196.693 54.6672 197.55 55.0685 198.316 55.6549C199.086 56.2387 199.733 56.9839 200.256 57.8905C200.699 58.6573 200.999 59.4373 201.156 60.2306C201.318 61.0212 201.342 61.7922 201.228 62.5433C201.117 63.299 200.876 64.0065 200.505 64.6658C200.134 65.3251 199.638 65.9033 199.017 66.4002L197.54 63.8428Z" fill="black"/>
            <path d="M204.543 78.5404C205.16 78.2385 205.554 77.7681 205.726 77.1291C205.9 76.4949 205.839 75.7741 205.546 74.9665C205.339 74.3988 205.076 73.943 204.757 73.5991C204.438 73.2552 204.092 73.0291 203.72 72.9206C203.348 72.8121 202.973 72.824 202.594 72.9563C202.281 73.0703 202.035 73.2401 201.857 73.4658C201.68 73.6963 201.556 73.9658 201.486 74.2742C201.42 74.5808 201.389 74.9054 201.391 75.2481C201.394 75.5907 201.415 75.9295 201.454 76.2646L201.614 77.8024C201.689 78.4182 201.709 79.029 201.674 79.6346C201.642 80.2451 201.53 80.8207 201.338 81.3614C201.149 81.907 200.857 82.3903 200.461 82.8114C200.066 83.2325 199.542 83.5615 198.892 83.7984C198.011 84.119 197.153 84.1762 196.318 83.97C195.489 83.762 194.731 83.3008 194.044 82.5864C193.364 81.875 192.805 80.9174 192.366 79.7134C191.941 78.5437 191.752 77.4622 191.801 76.469C191.851 75.4807 192.136 74.6178 192.654 73.8803C193.175 73.1477 193.927 72.5802 194.911 72.1776L195.887 74.8572C195.377 75.087 195 75.407 194.756 75.8174C194.512 76.2277 194.387 76.6916 194.381 77.2091C194.378 77.7316 194.479 78.2766 194.686 78.8444C194.901 79.4366 195.178 79.9233 195.516 80.3045C195.861 80.6889 196.239 80.9504 196.65 81.0891C197.066 81.2261 197.49 81.2186 197.922 81.0667C198.312 80.9193 198.593 80.6867 198.766 80.369C198.943 80.0494 199.044 79.6554 199.067 79.1868C199.097 78.7214 199.083 78.1945 199.024 77.6063L198.842 75.7354C198.709 74.3814 198.835 73.2271 199.219 72.2725C199.61 71.321 200.344 70.6493 201.421 70.2574C202.306 69.935 203.169 69.8925 204.01 70.1298C204.852 70.3721 205.608 70.8424 206.277 71.5409C206.952 72.2375 207.481 73.1119 207.864 74.1642C208.252 75.2311 208.407 76.2336 208.327 77.1717C208.254 78.1128 207.973 78.9328 207.485 79.6315C207.001 80.3285 206.339 80.8384 205.497 81.1613L204.543 78.5404Z" fill="black"/>
            <path d="M214 101.578V105.125L202.406 109.875V110.063L214 114.813V118.359H198V115.578H208.992V115.43L198.047 111.008V108.93L209.016 104.508V104.359H198V101.578H214Z" fill="black"/>
            <path d="M213.725 120.658L213.157 123.882L205.506 126.507L205.479 126.661L211.77 131.745L211.202 134.969L202.334 127.495L196.455 126.458L196.957 123.612L202.836 124.648L213.725 120.658Z" fill="black"/>
            <path d="M189.171 148.872L203.028 156.872L199.965 162.176C199.387 163.177 198.749 163.918 198.05 164.399C197.353 164.887 196.639 165.139 195.908 165.156C195.174 165.177 194.464 164.99 193.779 164.594C193.215 164.269 192.795 163.882 192.518 163.434C192.246 162.988 192.092 162.511 192.055 162.002C192.018 161.494 192.075 160.983 192.227 160.469L192.092 160.391C191.781 160.867 191.358 161.251 190.822 161.543C190.289 161.843 189.69 161.993 189.027 161.995C188.365 161.998 187.681 161.796 186.978 161.389C186.261 160.975 185.716 160.429 185.344 159.751C184.976 159.076 184.829 158.294 184.903 157.404C184.978 156.515 185.321 155.54 185.933 154.48L189.171 148.872ZM189.819 152.593L188.261 155.292C187.735 156.203 187.529 156.96 187.645 157.562C187.762 158.171 188.096 158.634 188.647 158.952C189.057 159.189 189.486 159.301 189.932 159.288C190.383 159.278 190.811 159.14 191.217 158.875C191.627 158.613 191.982 158.222 192.281 157.704L193.879 154.936L189.819 152.593ZM195.685 155.979L194.252 158.462C194.002 158.895 193.855 159.331 193.813 159.77C193.775 160.211 193.845 160.615 194.023 160.983C194.204 161.358 194.497 161.662 194.903 161.897C195.44 162.207 195.991 162.272 196.557 162.094C197.121 161.92 197.616 161.463 198.043 160.724L199.508 158.186L195.685 155.979Z" fill="black"/>
            <path d="M180.576 162.795L192.832 173.079L190.969 175.3L180.574 166.577L176.044 171.975L174.183 170.413L180.576 162.795Z" fill="black"/>
            <path d="M166.441 187.959C165.333 186.639 164.631 185.3 164.336 183.943C164.04 182.594 164.108 181.313 164.539 180.102C164.966 178.893 165.717 177.839 166.79 176.938C167.863 176.037 169.034 175.48 170.302 175.266C171.57 175.059 172.844 175.216 174.126 175.739C175.407 176.269 176.6 177.192 177.704 178.508C178.812 179.829 179.515 181.164 179.811 182.513C180.106 183.87 180.04 185.153 179.613 186.361C179.181 187.573 178.429 188.629 177.356 189.53C176.282 190.43 175.114 190.986 173.849 191.197C172.581 191.412 171.306 191.254 170.026 190.724C168.744 190.202 167.549 189.28 166.441 187.959ZM168.673 186.086C169.453 187.016 170.257 187.678 171.084 188.072C171.91 188.473 172.716 188.623 173.501 188.522C174.29 188.424 175.017 188.096 175.683 187.537C176.35 186.978 176.799 186.318 177.032 185.559C177.268 184.803 177.262 183.982 177.015 183.095C176.766 182.216 176.252 181.311 175.472 180.382C174.692 179.452 173.889 178.786 173.063 178.385C172.236 177.991 171.428 177.843 170.639 177.94C169.854 178.042 169.128 178.372 168.462 178.931C167.796 179.49 167.345 180.147 167.108 180.903C166.876 181.663 166.883 182.482 167.132 183.362C167.379 184.248 167.893 185.157 168.673 186.086Z" fill="black"/>
            <path d="M156.157 197.54C156.481 197.841 156.825 198.078 157.19 198.252C157.554 198.433 157.933 198.548 158.328 198.597C158.718 198.648 159.119 198.624 159.531 198.524C159.945 198.43 160.36 198.262 160.775 198.023C161.519 197.593 162.074 197.023 162.44 196.313C162.805 195.602 162.946 194.788 162.86 193.869C162.773 192.957 162.429 191.983 161.83 190.945C161.226 189.899 160.55 189.107 159.801 188.571C159.053 188.035 158.276 187.747 157.471 187.707C156.668 187.671 155.879 187.877 155.103 188.325C154.4 188.731 153.869 189.218 153.511 189.785C153.149 190.355 152.971 190.969 152.978 191.627C152.987 192.289 153.186 192.956 153.574 193.628L152.955 193.868L156.716 191.697L157.849 193.659L152.227 196.905L151.266 195.24C150.581 194.054 150.241 192.882 150.246 191.724C150.251 190.567 150.561 189.498 151.174 188.519C151.79 187.544 152.671 186.725 153.816 186.064C155.093 185.327 156.379 184.966 157.675 184.982C158.969 185.004 160.193 185.389 161.346 186.137C162.497 186.892 163.495 188 164.339 189.461C164.984 190.58 165.403 191.67 165.595 192.732C165.783 193.796 165.767 194.8 165.549 195.745C165.333 196.693 164.931 197.55 164.345 198.316C163.761 199.086 163.016 199.733 162.109 200.256C161.343 200.699 160.563 200.999 159.769 201.156C158.979 201.318 158.208 201.342 157.457 201.229C156.701 201.118 155.993 200.877 155.334 200.505C154.675 200.134 154.097 199.638 153.6 199.017L156.157 197.54Z" fill="black"/>
            <path d="M141.459 204.544C141.761 205.16 142.232 205.554 142.871 205.726C143.505 205.9 144.226 205.84 145.033 205.546C145.601 205.339 146.057 205.076 146.401 204.757C146.745 204.438 146.971 204.092 147.079 203.72C147.188 203.348 147.176 202.973 147.044 202.594C146.93 202.281 146.76 202.035 146.534 201.857C146.304 201.68 146.034 201.557 145.726 201.486C145.419 201.42 145.094 201.389 144.752 201.392C144.409 201.394 144.07 201.415 143.735 201.454L142.197 201.615C141.582 201.689 140.971 201.709 140.365 201.675C139.755 201.642 139.179 201.53 138.638 201.339C138.093 201.149 137.61 200.857 137.188 200.461C136.767 200.066 136.438 199.543 136.201 198.892C135.881 198.011 135.824 197.153 136.03 196.319C136.238 195.489 136.699 194.731 137.414 194.044C138.125 193.364 139.082 192.805 140.286 192.367C141.456 191.941 142.538 191.752 143.531 191.801C144.519 191.852 145.382 192.136 146.12 192.655C146.852 193.175 147.42 193.927 147.822 194.912L145.143 195.887C144.913 195.377 144.593 195.001 144.183 194.756C143.772 194.512 143.308 194.387 142.791 194.382C142.268 194.378 141.723 194.479 141.156 194.686C140.563 194.901 140.077 195.178 139.695 195.517C139.311 195.862 139.049 196.24 138.911 196.65C138.774 197.066 138.781 197.49 138.933 197.922C139.081 198.312 139.313 198.593 139.631 198.766C139.95 198.943 140.345 199.044 140.813 199.067C141.279 199.097 141.805 199.083 142.394 199.024L144.264 198.842C145.619 198.709 146.773 198.835 147.727 199.219C148.679 199.61 149.351 200.344 149.742 201.421C150.065 202.307 150.107 203.17 149.87 204.01C149.628 204.852 149.157 205.608 148.459 206.278C147.762 206.952 146.888 207.481 145.836 207.864C144.769 208.253 143.766 208.407 142.828 208.327C141.887 208.254 141.067 207.973 140.368 207.485C139.671 207.001 139.161 206.339 138.839 205.498L141.459 204.544Z" fill="black"/>
            <path d="M118.422 214H114.875L110.125 202.406H109.937L105.187 214H101.641V198H104.422V208.992H104.57L108.992 198.047H111.07L115.492 209.016H115.641V198H118.422V214Z" fill="black"/>
            <path d="M99.342 213.725L96.1183 213.157L93.4928 205.506L93.3389 205.479L88.2552 211.77L85.0315 211.202L92.5053 202.334L93.5418 196.455L96.3885 196.957L95.352 202.836L99.342 213.725Z" fill="black"/>
            <path d="M71.1284 189.171L63.1284 203.027L57.824 199.965C56.8227 199.387 56.0816 198.749 55.6009 198.05C55.113 197.353 54.8607 196.639 54.8439 195.908C54.8226 195.174 55.0099 194.464 55.4057 193.779C55.7312 193.215 56.1181 192.795 56.5664 192.518C57.0121 192.246 57.4892 192.092 57.9978 192.055C58.5064 192.017 59.0175 192.075 59.531 192.227L59.6091 192.092C59.1331 191.781 58.749 191.358 58.4568 190.822C58.1575 190.288 58.0067 189.69 58.0045 189.027C58.0023 188.365 58.2043 187.681 58.6105 186.978C59.0246 186.26 59.5707 185.716 60.2487 185.343C60.9241 184.976 61.7065 184.829 62.5957 184.903C63.485 184.978 64.4596 185.321 65.5195 185.933L71.1284 189.171ZM67.4074 189.819L64.7078 188.261C63.7967 187.735 63.0401 187.529 62.4382 187.645C61.8291 187.762 61.3657 188.096 61.048 188.647C60.811 189.057 60.6989 189.485 60.7118 189.932C60.7221 190.383 60.8597 190.811 61.1247 191.217C61.3871 191.627 61.7777 191.982 62.2964 192.281L65.0636 193.879L67.4074 189.819ZM64.0206 195.685L61.5376 194.252C61.1046 194.002 60.6688 193.855 60.2304 193.813C59.7893 193.775 59.3849 193.845 59.0172 194.023C58.6423 194.204 58.3377 194.497 58.1033 194.903C57.7934 195.44 57.7277 195.991 57.906 196.557C58.0799 197.121 58.5367 197.616 59.2764 198.043L61.8136 199.508L64.0206 195.685Z" fill="black"/>
            <path d="M57.205 180.576L46.9204 192.832L44.7001 190.969L53.4229 180.574L48.0247 176.044L49.5864 174.183L57.205 180.576Z" fill="black"/>
            <path d="M32.0405 166.441C33.3611 165.333 34.6998 164.631 36.0565 164.336C37.4059 164.04 38.6865 164.108 39.8984 164.539C41.1068 164.966 42.1614 165.717 43.0619 166.79C43.9625 167.863 44.52 169.034 44.7343 170.302C44.9414 171.57 44.7836 172.844 44.2612 174.126C43.7314 175.407 42.8081 176.6 41.4915 177.704C40.1709 178.812 38.8359 179.515 37.4865 179.811C36.1297 180.106 34.8471 180.04 33.6387 179.613C32.4268 179.181 31.3706 178.429 30.4701 177.356C29.5695 176.282 29.0137 175.114 28.8027 173.849C28.5883 172.581 28.746 171.306 29.2759 170.026C29.7983 168.744 30.7199 167.549 32.0405 166.441ZM33.9136 168.673C32.984 169.453 32.3222 170.257 31.9282 171.084C31.5269 171.91 31.3769 172.716 31.4783 173.501C31.5757 174.29 31.9039 175.017 32.463 175.683C33.0221 176.35 33.6815 176.799 34.4411 177.032C35.1968 177.268 36.0181 177.262 36.9048 177.015C37.7842 176.766 38.6887 176.252 39.6184 175.472C40.548 174.692 41.2135 173.889 41.6148 173.063C42.0088 172.236 42.1571 171.428 42.0597 170.639C41.9583 169.854 41.6281 169.128 41.069 168.462C40.5099 167.796 39.8525 167.345 39.0968 167.108C38.3372 166.876 37.5176 166.883 36.6382 167.132C35.7514 167.379 34.8433 167.893 33.9136 168.673Z" fill="black"/>
            <path d="M22.4599 156.157C22.1596 156.481 21.9224 156.825 21.7484 157.19C21.5671 157.553 21.4522 157.933 21.4036 158.327C21.3524 158.718 21.3764 159.119 21.4758 159.531C21.5707 159.945 21.7379 160.36 21.9775 160.775C22.4072 161.519 22.9772 162.074 23.6875 162.44C24.3978 162.805 25.2124 162.945 26.1313 162.86C27.0431 162.773 28.0177 162.429 29.0552 161.83C30.1016 161.226 30.8929 160.55 31.429 159.801C31.9651 159.053 32.2533 158.276 32.2936 157.471C32.3295 156.668 32.1234 155.879 31.6755 155.103C31.2693 154.4 30.7824 153.869 30.2149 153.511C29.6448 153.148 29.0309 152.971 28.3733 152.977C27.7111 152.987 27.044 153.186 26.372 153.574L26.1318 152.954L28.3037 156.716L26.3416 157.849L23.0955 152.227L24.7599 151.266C25.9462 150.581 27.1181 150.241 28.2758 150.246C29.4335 150.251 30.5021 150.561 31.4816 151.174C32.4566 151.79 33.2749 152.67 33.9363 153.816C34.6733 155.093 35.034 156.379 35.0185 157.675C34.9958 158.969 34.6107 160.193 33.8633 161.346C33.1087 162.497 32.0007 163.495 30.5393 164.338C29.4206 164.984 28.3304 165.403 27.2686 165.595C26.2041 165.783 25.1998 165.767 24.2556 165.549C23.307 165.333 22.4498 164.931 21.6843 164.345C20.9142 163.761 20.2674 163.016 19.744 162.109C19.3013 161.342 19.0013 160.562 18.844 159.769C18.6822 158.979 18.6581 158.208 18.7717 157.456C18.8827 156.701 19.1237 155.993 19.4948 155.334C19.866 154.675 20.3621 154.096 20.9833 153.6L22.4599 156.157Z" fill="black"/>
            <path d="M15.4566 141.459C14.8404 141.761 14.4463 142.232 14.2743 142.871C14.1005 143.505 14.1605 144.226 14.4544 145.033C14.6611 145.601 14.924 146.057 15.2431 146.401C15.5623 146.745 15.9079 146.971 16.2799 147.079C16.6519 147.188 17.0273 147.176 17.4059 147.043C17.7191 146.929 17.9649 146.76 18.1433 146.534C18.3199 146.303 18.4435 146.034 18.5142 145.726C18.5799 145.419 18.6114 145.094 18.6087 144.752C18.6059 144.409 18.5851 144.07 18.5463 143.735L18.3857 142.197C18.3112 141.582 18.2912 140.971 18.3257 140.365C18.3585 139.755 18.4704 139.179 18.6616 138.638C18.851 138.093 19.1434 137.609 19.5389 137.188C19.9344 136.767 20.4576 136.438 21.1085 136.201C21.9895 135.881 22.8471 135.824 23.6815 136.03C24.511 136.238 25.2692 136.699 25.956 137.413C26.6361 138.125 27.1953 139.082 27.6335 140.286C28.0593 141.456 28.2478 142.538 28.1991 143.531C28.1487 144.519 27.8642 145.382 27.3456 146.119C26.8251 146.852 26.0729 147.42 25.0887 147.822L24.1134 145.143C24.6228 144.913 24.9996 144.593 25.2438 144.182C25.488 143.772 25.6129 143.308 25.6185 142.791C25.6224 142.268 25.521 141.723 25.3143 141.155C25.0988 140.563 24.8219 140.076 24.4836 139.695C24.1386 139.311 23.7607 139.049 23.35 138.911C22.9343 138.774 22.5103 138.781 22.0778 138.933C21.688 139.08 21.4069 139.313 21.2343 139.631C21.0569 139.95 20.9564 140.344 20.933 140.813C20.9028 141.278 20.9172 141.805 20.9762 142.393L21.1583 144.264C21.2908 145.618 21.165 146.773 20.7808 147.727C20.39 148.679 19.6562 149.35 18.5794 149.742C17.6936 150.065 16.8306 150.107 15.9904 149.87C15.1484 149.628 14.3925 149.157 13.7226 148.459C13.0478 147.762 12.5189 146.888 12.1359 145.836C11.7476 144.769 11.5933 143.766 11.6731 142.828C11.7463 141.887 12.027 141.067 12.5154 140.368C12.9989 139.671 13.6613 139.161 14.5027 138.838L15.4566 141.459Z" fill="black"/>
            <path d="M6 118.422L6 114.875L17.5937 110.125V109.937L6 105.187L6 101.641H22V104.422H11.0078V104.57L21.9531 108.992L21.9531 111.07L10.9844 115.492V115.641H22V118.422H6Z" fill="black"/>
            <path d="M6.27494 99.342L6.84337 96.1183L14.4936 93.4928L14.5208 93.3389L8.22984 88.2552L8.79827 85.0315L17.6664 92.5053L23.5445 93.5418L23.0426 96.3885L17.1645 95.352L6.27494 99.342Z" fill="black"/>
            <path d="M30.8289 71.1287L16.9725 63.1287L20.035 57.8243C20.6131 56.8229 21.2515 56.0819 21.95 55.6011C22.6467 55.1132 23.3607 54.8609 24.0921 54.8441C24.826 54.8229 25.5358 55.0101 26.2214 55.406C26.7852 55.7315 27.2054 56.1184 27.4818 56.5667C27.7537 57.0123 27.9083 57.4895 27.9454 57.9981C27.9826 58.5066 27.925 59.0177 27.7729 59.5313L27.9082 59.6094C28.2191 59.1334 28.6424 58.7493 29.1779 58.4571C29.7116 58.1577 30.3098 58.007 30.9726 58.0048C31.6355 58.0025 32.3187 58.2046 33.0223 58.6108C33.7395 59.0249 34.2843 59.5709 34.6566 60.249C35.0244 60.9244 35.1711 61.7067 35.0967 62.596C35.0224 63.4852 34.6792 64.4598 34.0672 65.5198L30.8289 71.1287ZM30.1807 67.4076L31.7393 64.708C32.2654 63.7969 32.4706 63.0404 32.3551 62.4384C32.2376 61.8293 31.9038 61.3659 31.3535 61.0482C30.943 60.8113 30.5146 60.6992 30.0681 60.7121C29.6171 60.7223 29.1889 60.86 28.7833 61.125C28.3732 61.3874 28.0184 61.7779 27.7189 62.2966L26.1212 65.0639L30.1807 67.4076ZM24.3148 64.0209L25.7484 61.5378C25.9984 61.1048 26.1447 60.6691 26.1873 60.2306C26.2255 59.7896 26.1553 59.3852 25.9767 59.0174C25.7961 58.6426 25.5029 58.338 25.097 58.1036C24.5602 57.7937 24.0088 57.7279 23.4427 57.9063C22.8793 58.0802 22.384 58.5369 21.9569 59.2767L20.4921 61.8139L24.3148 64.0209Z" fill="black"/>
            <path d="M39.4243 57.2049L27.1676 46.9203L29.0306 44.6999L39.4261 53.4228L43.9557 48.0246L45.817 49.5863L39.4243 57.2049Z" fill="black"/>
            <path d="M53.5589 32.0404C54.667 33.361 55.3688 34.6997 55.6642 36.0564C55.9601 37.4058 55.8925 38.6864 55.4611 39.8982C55.0338 41.1067 54.2835 42.1612 53.2102 43.0618C52.1369 43.9624 50.9661 44.5199 49.6978 44.7342C48.4302 44.9412 47.1556 44.7835 45.8741 44.261C44.5933 43.7312 43.4005 42.808 42.2957 41.4914C41.1875 40.1707 40.4855 38.8357 40.1895 37.4863C39.8941 36.1296 39.9601 34.847 40.3875 33.6385C40.8188 32.4267 41.5711 31.3705 42.6444 30.47C43.7176 29.5694 44.8864 29.0136 46.1507 28.8026C47.4191 28.5882 48.6936 28.7459 49.9745 29.2757C51.256 29.7982 52.4508 30.7198 53.5589 32.0404ZM51.3266 33.9135C50.5466 32.9839 49.7431 32.3221 48.9162 31.9281C48.0899 31.5268 47.2841 31.3768 46.4989 31.4782C45.7104 31.5755 44.9829 31.9038 44.3166 32.4629C43.6503 33.022 43.2008 33.6813 42.9679 34.441C42.7318 35.1967 42.7376 36.0179 42.9853 36.9047C43.2337 37.7841 43.7479 38.6886 44.528 39.6183C45.308 40.5479 46.1112 41.2133 46.9374 41.6147C47.7644 42.0086 48.5721 42.1569 49.3607 42.0596C50.1459 41.9582 50.8716 41.628 51.5379 41.0689C52.2042 40.5098 52.6555 39.8524 52.8917 39.0967C53.1245 38.337 53.1167 37.5175 52.8683 36.6381C52.6206 35.7513 52.1067 34.8431 51.3266 33.9135Z" fill="black"/>
            <path d="M63.8429 22.4599C63.5192 22.1596 63.1748 21.9224 62.8096 21.7483C62.4464 21.5671 62.0673 21.4522 61.6724 21.4036C61.282 21.3524 60.8809 21.3764 60.4692 21.4758C60.0549 21.5707 59.6402 21.7379 59.2252 21.9775C58.481 22.4072 57.926 22.9772 57.5603 23.6875C57.1946 24.3978 57.0545 25.2124 57.14 26.1313C57.2274 27.0431 57.5706 28.0177 58.1695 29.0552C58.7737 30.1016 59.45 30.8929 60.1986 31.429C60.9471 31.9651 61.724 32.2533 62.5291 32.2936C63.3316 32.3295 64.1208 32.1234 64.8966 31.6755C65.6002 31.2692 66.131 30.7824 66.489 30.2149C66.8514 29.6447 67.0293 29.0309 67.0225 28.3733C67.013 27.7111 66.8143 27.044 66.4263 26.372L67.0454 26.1318L63.2836 28.3037L62.1508 26.3416L67.7732 23.0955L68.7341 24.7599C69.419 25.9461 69.7589 27.1181 69.7537 28.2758C69.7485 29.4335 69.4393 30.5021 68.8261 31.4816C68.2103 32.4566 67.3295 33.2749 66.1838 33.9363C64.9073 34.6733 63.6211 35.034 62.3251 35.0185C61.031 34.9958 59.8074 34.6107 58.6541 33.8633C57.5028 33.1087 56.5052 32.0007 55.6615 30.5392C55.0157 29.4206 54.5967 28.3304 54.4046 27.2686C54.2171 26.2041 54.2326 25.1998 54.4513 24.2556C54.6674 23.307 55.0686 22.4498 55.655 21.6843C56.2388 20.9142 56.984 20.2674 57.8906 19.744C58.6574 19.3013 59.4375 19.0013 60.2307 18.844C61.0214 18.6822 61.7923 18.6581 62.5435 18.7717C63.2992 18.8827 64.0067 19.1237 64.666 19.4948C65.3253 19.8659 65.9034 20.3621 66.4004 20.9833L63.8429 22.4599Z" fill="black"/>
            <path d="M78.5405 15.4568C78.2387 14.8406 77.7682 14.4465 77.1292 14.2745C76.495 14.1007 75.7742 14.1608 74.9666 14.4547C74.3989 14.6613 73.9431 14.9242 73.5992 15.2434C73.2554 15.5625 73.0292 15.9081 72.9207 16.2801C72.8123 16.6522 72.8242 17.0275 72.9564 17.4061C73.0704 17.7194 73.2403 17.9652 73.4659 18.1435C73.6965 18.3201 73.9659 18.4438 74.2743 18.5144C74.5809 18.5802 74.9056 18.6117 75.2482 18.6089C75.5908 18.6061 75.9297 18.5854 76.2647 18.5465L77.8025 18.3859C78.4184 18.3114 79.0291 18.2914 79.6347 18.3259C80.2452 18.3587 80.8208 18.4707 81.3615 18.6618C81.9071 18.8512 82.3905 19.1437 82.8115 19.5391C83.2326 19.9346 83.5616 20.4578 83.7985 21.1087C84.1192 21.9897 84.1764 22.8474 83.9701 23.6818C83.7621 24.5113 83.3009 25.2694 82.5865 25.9562C81.8752 26.6364 80.9175 27.1955 79.7135 27.6338C78.5438 28.0595 77.4624 28.248 76.4692 28.1994C75.4808 28.149 74.6179 27.8644 73.8805 27.3458C73.1479 26.8254 72.5803 26.0731 72.1778 25.0889L74.8573 24.1136C75.0871 24.6231 75.4072 24.9999 75.8175 25.244C76.2278 25.4882 76.6918 25.6131 77.2093 25.6187C77.7317 25.6226 78.2768 25.5212 78.8445 25.3146C79.4367 25.099 79.9234 24.8221 80.3047 24.4838C80.689 24.1388 80.9506 23.761 81.0893 23.3502C81.2262 22.9346 81.2187 22.5105 81.0669 22.078C80.9195 21.6883 80.6869 21.4071 80.3691 21.2346C80.0496 21.0571 79.6555 20.9567 79.1869 20.9332C78.7215 20.9031 78.1946 20.9175 77.6064 20.9764L75.7355 21.1585C74.3815 21.2911 73.2272 21.1652 72.2726 20.7811C71.3211 20.3902 70.6494 19.6564 70.2575 18.5797C69.9351 17.6938 69.8926 16.8308 70.13 15.9906C70.3722 15.1486 70.8426 14.3927 71.541 13.7228C72.2376 13.048 73.1121 12.5191 74.1643 12.1361C75.2313 11.7478 76.2338 11.5935 77.1718 11.6734C78.1129 11.7465 78.9329 12.0273 79.6317 12.5156C80.3286 12.9991 80.8386 13.6616 81.1614 14.5029L78.5405 15.4568Z" fill="black"/>
        </g>
        <animateTransform
                attributeName="transform"
                type="rotate"
                from="0 110 110"
                to="360 110 110"
                dur="20s"
                repeatCount="indefinite"
        />
    </g>
    <path d="M100.5 125L109.5 145V127.5H107.5L100.5 125Z" fill="black" stroke="black" stroke-linejoin="round"/>
    <path d="M118.5 125L109.5 145V127.5H111.5L118.5 125Z" fill="black" stroke="black" stroke-linejoin="round"/>
    <path d="M109.5 127.5V74.5" stroke="black" stroke-width="3" stroke-linecap="round" stroke-linejoin="round"/>
</svg>
